<?xml version="1.0" encoding="utf-8"?>
<!-- Generator: Adobe Illustrator 28.3.0, SVG Export Plug-In . SVG Version: 6.00 Build 0)  -->
<svg version="1.1" id="Layer_1" xmlns="http://www.w3.org/2000/svg" xmlns:xlink="http://www.w3.org/1999/xlink" x="0px" y="0px"
	 viewBox="0 0 232.09 232.09" style="enable-background:new 0 0 232.09 232.09;" xml:space="preserve">
<style type="text/css">
	.st0{fill:none;stroke:#FFFFFF;stroke-width:5;stroke-linecap:round;stroke-linejoin:round;stroke-miterlimit:10;}
</style>
<g>
	<g>
		<g>
			<g>
				<circle class="st0" cx="39.92" cy="60.41" r="11.38"/>
				<polyline class="st0" points="51.3,60.41 77,60.41 94.99,90.88 109.76,90.88 				"/>
			</g>
			<g>
				
					<ellipse transform="matrix(0.2298 -0.9732 0.9732 0.2298 -132.6342 168.1581)" class="st0" cx="39.92" cy="167.87" rx="11.38" ry="11.38"/>
				<polyline class="st0" points="51.3,167.87 77,167.87 94.99,137.41 109.76,137.41 				"/>
			</g>
		</g>
		<g>
			<g>
				<g>
					<circle class="st0" cx="72.84" cy="192.06" r="11.38"/>
					<line class="st0" x1="84.22" y1="192.06" x2="109.76" y2="192.06"/>
				</g>
			</g>
			<g>
				<g>
					<circle class="st0" cx="72.84" cy="36.22" r="11.38"/>
					<line class="st0" x1="84.22" y1="36.22" x2="109.76" y2="36.22"/>
				</g>
			</g>
		</g>
		<g>
			<circle class="st0" cx="64.24" cy="88.67" r="11.38"/>
			<circle class="st0" cx="64.24" cy="139.61" r="11.38"/>
		</g>
		<g>
			<circle class="st0" cx="29.39" cy="114.14" r="11.38"/>
			<line class="st0" x1="40.77" y1="114.14" x2="109.76" y2="114.14"/>
		</g>
		<line class="st0" x1="94.47" y1="168.74" x2="108.47" y2="168.74"/>
		<line class="st0" x1="94.47" y1="59.41" x2="108.47" y2="59.41"/>
	</g>
	<g>
		<path class="st0" d="M135.87,94.08c0.7,11.53,10.62,20.32,22.15,19.62c11.54-0.7,20.32-10.62,19.62-22.15"/>
		<path class="st0" d="M121.33,89.19c0.67-11.54,10.56-20.35,22.1-19.68"/>
		<path class="st0" d="M167.48,165.23c2.81-11.21-4-22.57-15.22-25.38"/>
		<path class="st0" d="M162.26,28c-11.56,0-20.92,9.37-20.92,20.92"/>
		<path class="st0" d="M178.78,58.8c-13,0-23.53,10.54-23.53,23.53"/>
		<path class="st0" d="M185.02,137.44c13,0,23.53-10.54,23.53-23.53"/>
		<path class="st0" d="M149.41,156.25c-15.54,0-28.14,12.6-28.14,28.14"/>
		<path class="st0" d="M210.35,142.17c0-5.75-2.33-10.96-6.08-14.75c2.69-3.83,4.29-8.48,4.29-13.52c0-7.88-3.89-14.84-9.84-19.11
			c2.26-3.62,3.59-7.88,3.59-12.46c0-12.36-9.54-22.48-21.65-23.44c1.61-2.96,2.52-6.36,2.52-9.97c0-11.56-9.37-20.92-20.92-20.92
			c-0.89,0-1.77,0.07-2.63,0.18c-3.75-5.64-10.15-9.36-17.43-9.36c-11.41,0-20.67,9.13-20.9,20.49h-0.02v144.56h0.01
			c0,0.17-0.01,0.34-0.01,0.52c0,15.54,12.6,28.14,28.14,28.14c12.87,0,23.72-8.65,27.06-20.44c9.67-1.84,16.99-10.33,16.99-20.54
			c0-3.05-0.67-5.94-1.84-8.56C202.14,161.88,210.35,152.98,210.35,142.17z"/>
	</g>
</g>
</svg>
