<?xml version="1.0" encoding="utf-8"?>
<!-- Generator: Adobe Illustrator 28.3.0, SVG Export Plug-In . SVG Version: 6.00 Build 0)  -->
<svg version="1.1" id="Layer_1" xmlns="http://www.w3.org/2000/svg" xmlns:xlink="http://www.w3.org/1999/xlink" x="0px" y="0px"
	 viewBox="0 0 841.04 544.78" style="enable-background:new 0 0 841.04 544.78;" xml:space="preserve">
<style type="text/css">
	.st0{fill:#FFFFFF;}
</style>
<g id="sun_and_clouds">
	<path class="st0" d="M276.98,28.66c5.58,0,10.12,4.54,10.12,10.12v54.93c0,5.58-4.54,10.12-10.12,10.12
		c-5.58,0-10.12-4.54-10.12-10.12V38.78C266.86,33.2,271.4,28.66,276.98,28.66 M276.98,14.51c-13.41,0-24.28,10.87-24.28,24.28
		v54.93c0,13.41,10.87,24.28,24.28,24.28s24.28-10.87,24.28-24.28V38.78C301.26,25.38,290.39,14.51,276.98,14.51L276.98,14.51z"/>
	<path class="st0" d="M106.05,254.52c5.58,0,10.12,4.54,10.12,10.12c0,5.58-4.54,10.12-10.12,10.12H51.12
		c-5.58,0-10.12-4.54-10.12-10.12c0-5.58,4.54-10.12,10.12-10.12H106.05 M106.05,240.36H51.12c-13.41,0-24.28,10.87-24.28,24.28
		s10.87,24.28,24.28,24.28h54.93c13.41,0,24.28-10.87,24.28-24.28S119.46,240.36,106.05,240.36L106.05,240.36z"/>
	<path class="st0" d="M117.27,94.81c2.7,0,5.25,1.05,7.16,2.96l38.84,38.84c3.95,3.95,3.95,10.37,0,14.32
		c-1.91,1.91-4.45,2.96-7.16,2.96c-2.7,0-5.25-1.05-7.16-2.97l-38.84-38.84c-3.95-3.95-3.95-10.37,0-14.32
		C112.03,95.87,114.57,94.81,117.27,94.81 M117.27,80.66c-6.21,0-12.43,2.37-17.17,7.11v0c-9.48,9.48-9.48,24.85,0,34.33
		l38.84,38.84c4.74,4.74,10.95,7.11,17.17,7.11c6.21,0,12.43-2.37,17.17-7.11c9.48-9.48,9.48-24.85,0-34.33l-38.84-38.84
		C129.7,83.03,123.49,80.66,117.27,80.66L117.27,80.66z"/>
	<path class="st0" d="M436.68,94.81c2.7,0,5.25,1.05,7.16,2.97c1.91,1.91,2.96,4.45,2.96,7.16c0,2.7-1.05,5.25-2.96,7.16L405,150.94
		c-1.91,1.91-4.45,2.96-7.16,2.96c-2.7,0-5.25-1.05-7.16-2.96c-3.95-3.95-3.95-10.37,0-14.32l38.84-38.84
		C431.44,95.87,433.98,94.81,436.68,94.81 M436.68,80.66c-6.21,0-12.43,2.37-17.17,7.11l-38.84,38.84c-9.48,9.48-9.48,24.85,0,34.33
		c4.74,4.74,10.95,7.11,17.17,7.11s12.43-2.37,17.17-7.11l38.84-38.84c9.48-9.48,9.48-24.85,0-34.33v0
		C449.11,83.03,442.9,80.66,436.68,80.66L436.68,80.66z"/>
	<path class="st0" d="M156.12,375.38c2.7,0,5.25,1.05,7.16,2.96c3.95,3.95,3.95,10.37,0,14.32l-38.84,38.84
		c-1.91,1.91-4.45,2.96-7.16,2.96c-2.7,0-5.25-1.05-7.16-2.97c-1.91-1.91-2.96-4.45-2.96-7.16c0-2.7,1.05-5.25,2.96-7.16
		l38.84-38.84C150.87,376.43,153.41,375.38,156.12,375.38 M156.12,361.23c-6.21,0-12.43,2.37-17.17,7.11l-38.84,38.84
		c-9.48,9.48-9.48,24.85,0,34.33v0c4.74,4.74,10.95,7.11,17.17,7.11c6.21,0,12.43-2.37,17.17-7.11l38.84-38.84
		c9.48-9.48,9.48-24.85,0-34.33C168.54,363.6,162.33,361.23,156.12,361.23L156.12,361.23z"/>
	<path class="st0" d="M692.86,274.17c-4.1,0-8.16,0.21-12.17,0.58c-26.7-70.15-94.57-120.03-174.12-120.03
		c-44.3,0-84.96,15.46-116.92,41.3c-23.14-37.97-64.95-63.31-112.67-63.31c-72.88,0-131.94,59.06-131.94,131.94
		c0,43.01,20.6,81.23,52.46,105.29c-2.46,9.86-3.77,20.17-3.77,30.79c0,69.89,56.65,126.56,126.56,126.56h372.57
		c69.89,0,126.56-56.67,126.56-126.56C819.42,330.82,762.75,274.17,692.86,274.17z M159.2,264.65
		c0-64.95,52.83-117.78,117.78-117.78c43.38,0,81.39,23.59,101.81,58.64c-20.28,19.13-36.24,42.75-46.34,69.25
		c-4-0.37-8.05-0.58-12.16-0.58c-53.96,0-100.02,33.76-118.23,81.3C175.9,333.84,159.2,301.15,159.2,264.65z M692.86,513.13H320.3
		c-62,0-112.41-50.43-112.41-112.41c0-7.64,0.76-15.13,2.23-22.35c0.99-4.88,2.28-9.64,3.89-14.26
		c15.22-44.06,57.1-75.8,106.28-75.8c3.49,0,7.13,0.18,10.81,0.53c0.46,0.04,0.9,0.05,1.36,0.05c5.82,0,11.11-3.57,13.22-9.11
		c8.79-23.13,22.33-43.84,39.74-61.06c3.52-3.5,7.22-6.85,11.06-10.03c3.64-3.06,7.43-5.94,11.36-8.71
		c29-20.36,63.15-31.12,98.73-31.12c35.58,0,69.73,10.76,98.75,31.12c28.38,19.94,49.86,47.52,62.16,79.8
		c2.11,5.54,7.4,9.11,13.22,9.11c0.44,0,0.9-0.02,1.34-0.05c3.7-0.35,7.33-0.53,10.83-0.53c61.98,0,112.41,50.43,112.41,112.41
		C805.27,462.7,754.84,513.13,692.86,513.13z"/>
</g>
</svg>
