<?xml version="1.0" encoding="utf-8"?>
<!-- Generator: Adobe Illustrator 28.3.0, SVG Export Plug-In . SVG Version: 6.00 Build 0)  -->
<svg version="1.1" id="Layer_1" xmlns="http://www.w3.org/2000/svg" xmlns:xlink="http://www.w3.org/1999/xlink" x="0px" y="0px"
	 viewBox="0 0 800 800" style="enable-background:new 0 0 800 800;" xml:space="preserve">
<style type="text/css">
	.st0{fill:#FFFFFF;}
</style>
<g id="Global_Time">
	<path class="st0" d="M407.5,100.19c-2.34-0.06-4.67-0.16-7.02-0.18c-0.16,0-0.32-0.01-0.48-0.01h0c-2.52,0-5,0.13-7.5,0.19
		C230.29,104.18,100,236.83,100,400s130.29,295.82,292.5,299.81c2.34,0.06,4.67,0.16,7.02,0.18c0.16,0,0.32,0.01,0.48,0.01h0
		c2.52,0,5-0.13,7.5-0.19C569.71,695.82,700,563.17,700,400S569.71,104.18,407.5,100.19z M661.81,287.5h-81.04
		c-8.8-30-21.45-67.5-37.04-90h56.54C626.16,220,647.19,250,661.81,287.5z M583.73,182.5h-49.51
		c-15.74-22.5-33.97-41.99-54.01-55.93C518.73,137.89,553.83,160,583.73,182.5z M516.06,182.5h-48.99
		c-9.06-30-19.74-47.66-31.58-61.91C465.79,130.22,493.32,152.5,516.06,182.5z M407.5,182.31v-65.64
		c7.5,6.03,30.16,28.33,43.55,65.83H407.5V182.31z M392.5,116.67v65.83h-43.62C362.29,145,385,122.71,392.5,116.67z M332.89,182.5
		h-49.02c22.76-30,50.33-52.27,80.64-61.91C352.66,134.85,341.95,152.5,332.89,182.5z M319.8,126.57
		c-20.05,13.94-38.28,33.43-54.02,55.93h-49.65C246.04,160,281.23,137.9,319.8,126.57z M199.69,197.5h56.46
		c-15.57,30-28.12,60-36.92,90h-81.04C152.81,257.5,173.81,220,199.69,197.5z M138.19,512.5h81.04c8.8,30,21.45,67.5,37.04,90
		h-56.54C173.84,580,152.81,550,138.19,512.5z M216.27,617.5h49.51c15.74,22.5,33.97,41.99,54.01,55.93
		C281.27,662.11,246.17,640,216.27,617.5z M283.94,617.5h48.99c9.06,30,19.74,47.66,31.58,61.91
		C334.21,669.78,306.68,647.5,283.94,617.5z M392.5,617.69v65.64c-7.5-6.03-30.16-28.33-43.55-65.83h43.55V617.69z M407.5,683.33
		V617.5h43.62C437.71,655,415,677.29,407.5,683.33z M467.11,617.5h49.02c-22.76,30-50.33,52.27-80.64,61.91
		C447.34,665.15,458.05,647.5,467.11,617.5z M480.2,673.43c20.05-13.94,38.28-33.43,54.02-55.93h49.65
		C553.96,640,518.77,662.1,480.2,673.43z M600.31,602.5h-56.46c15.57-30,28.12-60,36.92-90h81.04
		C647.19,542.5,626.19,580,600.31,602.5z M667.81,497.5h-83.4c1.75-8.29,3.24-16.59,4.57-24.88c-6.56,17.01-15.33,32.93-26,47.38
		c-9.08,28.55-21.45,61.82-36.47,82.5h-54.58c1.27-4.89,2.43-9.78,3.62-14.67c-5.4,2.18-10.91,4.16-16.53,5.88
		c-0.94,3.05-1.9,5.98-2.88,8.8H407.5v-0.19v0c-2.49,0.09-4.98,0.19-7.5,0.19s-5.01-0.1-7.5-0.19v0.19h-48.58
		c-0.98-2.81-1.94-5.74-2.88-8.78c-5.91-1.8-11.69-3.88-17.35-6.19c1.41,5.42,2.87,10.55,4.4,14.97h-54.5
		c-15.37-21.13-28.03-48.96-37.17-83.32c-10.4-14.23-18.97-29.86-25.41-46.55c1.33,8.29,2.82,16.59,4.57,24.88h-83.4
		c-10.3-30-16.18-60-17-90h82.5c-0.09-2.49-0.19-4.98-0.19-7.5s0.1-5.01,0.19-7.5h-82.5c0.82-30,6.7-60,17-90h83.4
		c-1.75,8.29-3.24,16.59-4.57,24.88c6.56-17.01,15.33-32.93,26-47.38c9.08-28.55,21.45-61.82,36.47-82.5h54.58
		c-1.27,4.89-2.43,9.78-3.62,14.68c5.4-2.18,10.91-4.16,16.53-5.88c0.94-3.05,1.9-5.98,2.88-8.8h48.64v0.19v0
		c2.49-0.09,4.98-0.19,7.5-0.19s5.01,0.1,7.5,0.19v-0.19h48.58c0.98,2.81,1.94,5.74,2.88,8.78c5.91,1.8,11.69,3.88,17.35,6.19
		c-1.41-5.42-2.87-10.55-4.4-14.97h54.5c15.37,21.13,28.03,48.96,37.17,83.32c10.4,14.23,18.97,29.86,25.41,46.55
		c-1.33-8.29-2.82-16.59-4.57-24.88h83.4c10.3,30,16.18,60,17,90h-82.5c0.09,2.49,0.19,4.98,0.19,7.5s-0.1,5.01-0.19,7.5h82.5
		C683.99,437.5,678.11,467.5,667.81,497.5z"/>
	<path class="st0" d="M400,212.5c-103.39,0-187.5,84.11-187.5,187.5S296.61,587.5,400,587.5S587.5,503.39,587.5,400
		S503.39,212.5,400,212.5z M400,572.5c-95.12,0-172.5-77.38-172.5-172.5S304.88,227.5,400,227.5S572.5,304.88,572.5,400
		S495.12,572.5,400,572.5z M276.59,328.75c-2.07,3.59-6.66,4.82-10.25,2.75c-3.59-2.07-4.82-6.66-2.75-10.25
		c2.07-3.59,6.66-4.82,10.25-2.75C277.43,320.58,278.66,325.16,276.59,328.75z M536.4,478.75c-2.07,3.59-6.66,4.82-10.25,2.75
		c-3.59-2.07-4.82-6.66-2.75-10.25c2.07-3.59,6.66-4.82,10.25-2.75C537.24,470.58,538.47,475.16,536.4,478.75z M481.5,273.85
		c-2.07,3.59-6.66,4.82-10.25,2.75c-3.59-2.07-4.82-6.66-2.75-10.25c2.07-3.59,6.66-4.82,10.25-2.75
		C482.34,265.67,483.57,270.26,481.5,273.85z M331.5,533.66c-2.07,3.59-6.66,4.82-10.25,2.75c-3.59-2.07-4.82-6.66-2.75-10.25
		c2.07-3.59,6.66-4.82,10.25-2.75C332.34,525.48,333.57,530.07,331.5,533.66z M318.5,273.85c-2.07-3.59-0.84-8.17,2.75-10.25
		c3.59-2.07,8.17-0.84,10.25,2.75c2.07,3.59,0.84,8.17-2.75,10.25C325.16,278.66,320.58,277.44,318.5,273.85z M481.5,526.16
		c2.07,3.59,0.84,8.17-2.75,10.25c-3.59,2.07-8.17,0.84-10.25-2.75c-2.07-3.59-0.84-8.17,2.75-10.25
		C474.84,521.34,479.42,522.57,481.5,526.16z M523.41,328.75c-2.07-3.59-0.84-8.17,2.75-10.25c3.59-2.07,8.17-0.84,10.25,2.75
		c2.07,3.59,0.84,8.17-2.75,10.25C530.07,333.57,525.48,332.34,523.41,328.75z M276.59,471.25c2.07,3.59,0.84,8.17-2.75,10.25
		c-3.59,2.07-8.17,0.84-10.25-2.75c-2.07-3.59-0.84-8.17,2.75-10.25C269.93,466.44,274.52,467.66,276.59,471.25z M392.5,265v-22.5
		c0-4.14,3.35-7.5,7.5-7.5c4.15,0,7.5,3.36,7.5,7.5V265c0,4.14-3.35,7.5-7.5,7.5C395.85,272.5,392.5,269.14,392.5,265z M407.5,535
		v22.5c0,4.14-3.35,7.5-7.5,7.5c-4.15,0-7.5-3.36-7.5-7.5V535c0-4.14,3.35-7.5,7.5-7.5C404.15,527.5,407.5,530.86,407.5,535z
		 M565,400c0,4.14-3.35,7.5-7.5,7.5H535c-4.15,0-7.5-3.36-7.5-7.5c0-4.14,3.35-7.5,7.5-7.5h22.5C561.65,392.5,565,395.86,565,400z
		 M265,407.5h-22.5c-4.15,0-7.5-3.36-7.5-7.5c0-4.14,3.35-7.5,7.5-7.5H265c4.15,0,7.5,3.36,7.5,7.5
		C272.5,404.14,269.15,407.5,265,407.5z M465.3,334.7c2.93,2.93,2.93,7.68,0,10.61l-60,60c-1.46,1.46-3.38,2.2-5.3,2.2
		c-1.92,0-3.84-0.73-5.3-2.2l-90-90c-2.93-2.93-2.93-7.68,0-10.61c2.93-2.93,7.68-2.93,10.61,0l84.7,84.7l54.7-54.7
		C457.63,331.77,462.37,331.77,465.3,334.7z"/>
</g>
</svg>
